<svg width="30" height="37" viewBox="0 0 30 37" fill="none" xmlns="http://www.w3.org/2000/svg">
<g filter="url(#filter0_d_611_27661)">
<path d="M26 13C26 18.5 18.6875 28.1875 15.4375 32.25C14.6875 33.1875 13.25 33.1875 12.5 32.25C9.25 28.1875 2 18.5 2 13C2 6.375 7.3125 1 14 1C20.625 1 26 6.375 26 13Z" fill="#1D72AF"/>
<path d="M24 13C24 13.9827 23.6598 15.3302 22.964 16.9793C22.2816 18.5965 21.3222 20.3545 20.236 22.113C18.0641 25.629 15.4814 28.9936 13.8758 31.0006L16.9992 33.4994C18.6436 31.4439 21.3421 27.9335 23.639 24.2151C24.7871 22.3565 25.859 20.4075 26.6493 18.5343C27.4261 16.6933 28 14.7673 28 13H24ZM13.8758 31.0006C13.8856 30.9883 13.9031 30.9737 13.9241 30.9639C13.9425 30.9554 13.9576 30.9531 13.9688 30.9531C13.9799 30.9531 13.995 30.9554 14.0134 30.9639C14.0344 30.9737 14.0519 30.9883 14.0617 31.0006L10.9383 33.4994C12.4889 35.4377 15.4486 35.4377 16.9992 33.4994L13.8758 31.0006ZM14.0617 31.0006C12.4594 28.9976 9.89236 25.6337 7.73608 22.1183C6.65761 20.3601 5.70552 18.602 5.02849 16.9846C4.33821 15.3355 4 13.986 4 13H0C0 14.764 0.568035 16.6879 1.33869 18.5291C2.12261 20.4019 3.18614 22.3508 4.32642 24.2098C6.60764 27.9288 9.29063 31.4399 10.9383 33.4994L14.0617 31.0006ZM4 13C4 7.47277 8.42386 3 14 3V-1C6.20114 -1 0 5.27723 0 13H4ZM14 3C19.5204 3 24 7.47957 24 13H28C28 5.27043 21.7296 -1 14 -1V3Z" fill="white"/>
<mask id="path-3-outside-1_611_27661" maskUnits="userSpaceOnUse" x="6" y="5" width="16" height="16" fill="black">
<rect fill="white" x="6" y="5" width="16" height="16"/>
<path fill-rule="evenodd" clip-rule="evenodd" d="M16 7C16 6.44772 15.5523 6 15 6H13C12.4477 6 12 6.44772 12 7V11H8C7.44772 11 7 11.4477 7 12V14C7 14.5523 7.44772 15 8 15H12V19C12 19.5523 12.4477 20 13 20H15C15.5523 20 16 19.5523 16 19V15H20C20.5523 15 21 14.5523 21 14V12C21 11.4477 20.5523 11 20 11H16V7Z"/>
</mask>
<path fill-rule="evenodd" clip-rule="evenodd" d="M16 7C16 6.44772 15.5523 6 15 6H13C12.4477 6 12 6.44772 12 7V11H8C7.44772 11 7 11.4477 7 12V14C7 14.5523 7.44772 15 8 15H12V19C12 19.5523 12.4477 20 13 20H15C15.5523 20 16 19.5523 16 19V15H20C20.5523 15 21 14.5523 21 14V12C21 11.4477 20.5523 11 20 11H16V7Z" fill="white"/>
<path d="M12 11V12H13V11H12ZM12 15H13V14H12V15ZM16 15V14H15V15H16ZM16 11H15V12H16V11ZM15 7H17C17 5.89543 16.1046 5 15 5V7ZM13 7H15V5H13V7ZM13 7V7V5C11.8954 5 11 5.89543 11 7H13ZM13 11V7H11V11H13ZM8 12H12V10H8V12ZM8 12V10C6.89543 10 6 10.8954 6 12H8ZM8 14V12H6V14H8ZM8 14H8H6C6 15.1046 6.89543 16 8 16V14ZM12 14H8V16H12V14ZM13 19V15H11V19H13ZM13 19H11C11 20.1046 11.8954 21 13 21V19ZM15 19H13V21H15V19ZM15 19H15V21C16.1046 21 17 20.1046 17 19H15ZM15 15V19H17V15H15ZM20 14H16V16H20V14ZM20 14V16C21.1046 16 22 15.1046 22 14H20ZM20 12V14H22V12H20ZM20 12H22C22 10.8954 21.1046 10 20 10V12ZM16 12H20V10H16V12ZM15 7V11H17V7H15Z" fill="#184F67" mask="url(#path-3-outside-1_611_27661)"/>
<path d="M19.9062 23.5V22.4688C19.9062 20.7715 21.2812 19.375 23 19.375C24.6973 19.375 26.0938 20.7715 26.0938 22.4688V23.5H26.4375C27.1895 23.5 27.8125 24.123 27.8125 24.875V29C27.8125 29.7734 27.1895 30.375 26.4375 30.375H19.5625C18.7891 30.375 18.1875 29.7734 18.1875 29V24.875C18.1875 24.123 18.7891 23.5 19.5625 23.5H19.9062ZM21.2812 23.5H24.7188V22.4688C24.7188 21.5234 23.9453 20.75 23 20.75C22.0332 20.75 21.2812 21.5234 21.2812 22.4688V23.5Z" fill="#1D72AF"/>
<path d="M19.9062 23.5V25.5H21.9062V23.5H19.9062ZM26.0938 23.5H24.0938V25.5H26.0938V23.5ZM21.2812 23.5H19.2812V25.5H21.2812V23.5ZM24.7188 23.5V25.5H26.7188V23.5H24.7188ZM21.9062 23.5V22.4688H17.9062V23.5H21.9062ZM21.9062 22.4688C21.9062 21.867 22.3949 21.375 23 21.375V17.375C20.1676 17.375 17.9062 19.676 17.9062 22.4688H21.9062ZM23 21.375C23.5927 21.375 24.0938 21.8761 24.0938 22.4688H28.0938C28.0938 19.6669 25.8018 17.375 23 17.375V21.375ZM24.0938 22.4688V23.5H28.0938V22.4688H24.0938ZM26.0938 25.5H26.4375V21.5H26.0938V25.5ZM26.4375 25.5C26.0849 25.5 25.8125 25.2276 25.8125 24.875H29.8125C29.8125 23.0185 28.294 21.5 26.4375 21.5V25.5ZM25.8125 24.875V29H29.8125V24.875H25.8125ZM25.8125 29C25.8125 28.6485 26.1053 28.375 26.4375 28.375V32.375C28.2736 32.375 29.8125 30.8983 29.8125 29H25.8125ZM26.4375 28.375H19.5625V32.375H26.4375V28.375ZM19.5625 28.375C19.7072 28.375 19.8719 28.4361 19.9992 28.5633C20.1264 28.6906 20.1875 28.8553 20.1875 29H16.1875C16.1875 30.878 17.6845 32.375 19.5625 32.375V28.375ZM20.1875 29V24.875H16.1875V29H20.1875ZM20.1875 24.875C20.1875 25.2072 19.914 25.5 19.5625 25.5V21.5C17.6642 21.5 16.1875 23.0389 16.1875 24.875H20.1875ZM19.5625 25.5H19.9062V21.5H19.5625V25.5ZM21.2812 25.5H24.7188V21.5H21.2812V25.5ZM26.7188 23.5V22.4688H22.7188V23.5H26.7188ZM26.7188 22.4688C26.7188 20.4189 25.0499 18.75 23 18.75V22.75C22.8407 22.75 22.7188 22.628 22.7188 22.4688H26.7188ZM23 18.75C20.9123 18.75 19.2812 20.4352 19.2812 22.4688H23.2812C23.2812 22.5357 23.2522 22.6087 23.1984 22.663C23.1421 22.7197 23.0647 22.75 23 22.75V18.75ZM19.2812 22.4688V23.5H23.2812V22.4688H19.2812Z" fill="white"/>
</g>
<defs>
<filter id="filter0_d_611_27661" x="0" y="0" width="30" height="36.1875" filterUnits="userSpaceOnUse" color-interpolation-filters="sRGB">
<feFlood flood-opacity="0" result="BackgroundImageFix"/>
<feColorMatrix in="SourceAlpha" type="matrix" values="0 0 0 0 0 0 0 0 0 0 0 0 0 0 0 0 0 0 127 0" result="hardAlpha"/>
<feOffset dy="1"/>
<feGaussianBlur stdDeviation="1"/>
<feComposite in2="hardAlpha" operator="out"/>
<feColorMatrix type="matrix" values="0 0 0 0 0.0655035 0 0 0 0 0.242989 0 0 0 0 0.320833 0 0 0 0.9 0"/>
<feBlend mode="normal" in2="BackgroundImageFix" result="effect1_dropShadow_611_27661"/>
<feBlend mode="normal" in="SourceGraphic" in2="effect1_dropShadow_611_27661" result="shape"/>
</filter>
</defs>
</svg>
