<?xml version="1.0" encoding="UTF-8" standalone="no"?>
<svg
   width="20"
   height="25.964825"
   viewBox="0 0 20 25.964825"
   fill="none"
   version="1.1"
   id="svg7759"
   sodipodi:docname="poi_school_default.svg"
   inkscape:version="1.2.2 (b0a8486541, 2022-12-01)"
   xmlns:inkscape="http://www.inkscape.org/namespaces/inkscape"
   xmlns:sodipodi="http://sodipodi.sourceforge.net/DTD/sodipodi-0.dtd"
   xmlns="http://www.w3.org/2000/svg"
   xmlns:svg="http://www.w3.org/2000/svg">
  <sodipodi:namedview
     id="namedview7761"
     pagecolor="#ffffff"
     bordercolor="#000000"
     borderopacity="0.25"
     inkscape:showpageshadow="2"
     inkscape:pageopacity="0.0"
     inkscape:pagecheckerboard="0"
     inkscape:deskcolor="#d1d1d1"
     showgrid="false"
     inkscape:zoom="18.88"
     inkscape:cx="14.009534"
     inkscape:cy="9.4544492"
     inkscape:window-width="1920"
     inkscape:window-height="1137"
     inkscape:window-x="0"
     inkscape:window-y="0"
     inkscape:window-maximized="1"
     inkscape:current-layer="svg7759" />
  <path
     d="m 18,10 c 0,0.83511 -0.2844,1.918 -0.8164,3.1789 -0.5252,1.2448 -1.2588,2.5872 -2.0812,3.9186 -1.6446,2.6623 -3.5961,5.204 -4.80514,6.7153 l 1.56174,1.2494 c 1.2284,-1.5356 3.2379,-4.1501 4.9449,-6.9136 0.8533,-1.3815 1.6432,-2.8194 2.2224,-4.1922 C 19.5988,12.5996 20,11.2274 20,10 Z m -7.70274,13.8128 c -0.16218,0.2027 -0.47922,0.2027 -0.64139,0 l -1.56174,1.2494 c 0.96283,1.2035 2.80204,1.2035 3.76487,0 z m -0.64139,0 C 8.44843,22.3035 6.50868,19.7622 4.87585,17.1002 4.05927,15.7689 3.33127,14.4265 2.81014,13.1815 2.28239,11.9207 2,10.83674 2,10 H 0 c 0,1.2258 0.397299,2.5969 0.9652458,3.9537 0.5745742,1.3727 1.3582942,2.8106 2.2057742,4.1922 1.6953,2.7638 3.69305,5.3787 4.92311,6.9163 z M 2,10 C 2,5.58013 5.54005,2 10,2 V 0 C 4.4287,0 0,4.48237 0,10 Z m 8,-8 c 4.4165,0 8,3.58353 8,8 h 2 C 20,4.47897 15.521,0 10,0 Z"
     fill="#184F67"
     fill-opacity="0.8"
     id="path7736"
     style="fill:#184f67;fill-opacity:1" />
  <path
     d="m 19,10 c 0,4.125 -5.4844,11.3906 -7.9219,14.4375 -0.56248,0.7031 -1.6406,0.7031 -2.2031,0 C 6.4375,21.3906 1,14.125 1,10 1,5.03125 4.98438,1 10,1 c 4.9688,0 9,4.03125 9,9 z"
     fill="#7fccb1"
     id="path7734" />
  <g
     filter="url(#filter0_d_3180_168755)"
     id="g7740"
     transform="translate(1,1)">
    <path
       d="M 13.8125,11.0938 V 4.90625 C 13.8125,4.34766 13.3398,3.875 12.7812,3.875 H 6.25 c -1.16016,0 -2.0625,0.92383 -2.0625,2.0625 v 6.875 c 0,1.1602 0.90234,2.0625 2.0625,2.0625 h 6.875 c 0.3652,0 0.6875,-0.3008 0.6875,-0.666 0,-0.2363 -0.1504,-0.4512 -0.3437,-0.5801 v -1.7402 c 0.1933,-0.2149 0.3437,-0.4727 0.3437,-0.7949 z M 7.25977,6.625 h 4.12503 c 0.1933,0 0.3652,0.17188 0.3652,0.34375 0,0.19336 -0.1719,0.34375 -0.3438,0.34375 H 7.25977 C 7.08789,7.3125 6.9375,7.16211 6.9375,6.96875 6.9375,6.79688 7.08789,6.625 7.25977,6.625 Z m 0,1.375 h 4.12503 c 0.1933,0 0.3652,0.17188 0.3652,0.34375 0,0.19336 -0.1719,0.34375 -0.3438,0.34375 H 7.25977 C 7.08789,8.6875 6.9375,8.53711 6.9375,8.34375 6.9375,8.17188 7.08789,8 7.25977,8 Z m 5.17773,5.5 H 6.25 c -0.38672,0 -0.6875,-0.3008 -0.6875,-0.6875 0,-0.3652 0.30078,-0.6875 0.6875,-0.6875 h 6.1875 z"
       fill="#ffffff"
       id="path7738" />
  </g>
  <defs
     id="defs7757">
    <filter
       id="filter0_d_3180_168755"
       x="2"
       y="1"
       width="15"
       height="15"
       filterUnits="userSpaceOnUse"
       color-interpolation-filters="sRGB">
      <feFlood
         flood-opacity="0"
         result="BackgroundImageFix"
         id="feFlood7742" />
      <feColorMatrix
         in="SourceAlpha"
         type="matrix"
         values="0 0 0 0 0 0 0 0 0 0 0 0 0 0 0 0 0 0 127 0"
         result="hardAlpha"
         id="feColorMatrix7744" />
      <feOffset
         dx="1"
         dy="1"
         id="feOffset7746" />
      <feComposite
         in2="hardAlpha"
         operator="out"
         id="feComposite7748" />
      <feColorMatrix
         type="matrix"
         values="0 0 0 0 0.0266146 0 0 0 0 0.219547 0 0 0 0 0.304167 0 0 0 0.5 0"
         id="feColorMatrix7750" />
      <feBlend
         mode="normal"
         in2="BackgroundImageFix"
         result="effect1_dropShadow_3180_168755"
         id="feBlend7752" />
      <feBlend
         mode="normal"
         in="SourceGraphic"
         in2="effect1_dropShadow_3180_168755"
         result="shape"
         id="feBlend7754" />
    </filter>
  </defs>
</svg>
