<svg width="14" height="18" viewBox="0 0 14 18" fill="none" xmlns="http://www.w3.org/2000/svg">
<g filter="url(#filter0_d_611_27738)">
<path d="M10.875 7.375C10.875 9.26562 8.36133 12.5957 7.24414 13.9922C6.98633 14.3145 6.49219 14.3145 6.23438 13.9922C5.11719 12.5957 2.625 9.26562 2.625 7.375C2.625 5.09766 4.45117 3.25 6.75 3.25C9.02734 3.25 10.875 5.09766 10.875 7.375Z" fill="#BF3900"/>
<path d="M9.875 7.375C9.875 7.65152 9.77631 8.06949 9.54344 8.62141C9.31733 9.1573 8.99632 9.74668 8.62774 10.3434C7.89094 11.5362 7.01217 12.6814 6.46327 13.3675L8.02501 14.6169C8.5933 13.9065 9.52996 12.6884 10.3293 11.3944C10.7288 10.7477 11.106 10.0628 11.3861 9.39891C11.6595 8.75106 11.875 8.0438 11.875 7.375H9.875ZM6.46327 13.3675C6.60578 13.1894 6.87273 13.1894 7.01524 13.3675L5.45351 14.6169C6.11164 15.4396 7.36687 15.4396 8.02501 14.6169L6.46327 13.3675ZM7.01524 13.3675C6.46796 12.6834 5.59462 11.5385 4.86316 10.346C4.49726 9.74952 4.17869 9.16009 3.95431 8.62404C3.72331 8.07217 3.625 7.65314 3.625 7.375H1.625C1.625 8.04217 1.83822 8.74839 2.10941 9.39628C2.38723 10.06 2.76153 10.7449 3.15833 11.3918C3.95226 12.6861 4.8836 13.9045 5.45351 14.6169L7.01524 13.3675ZM3.625 7.375C3.625 5.64654 5.00685 4.25 6.75 4.25V2.25C3.89549 2.25 1.625 4.54877 1.625 7.375H3.625ZM6.75 4.25C8.47506 4.25 9.875 5.64994 9.875 7.375H11.875C11.875 4.54537 9.57963 2.25 6.75 2.25V4.25Z" fill="#184F67"/>
</g>
<defs>
<filter id="filter0_d_611_27738" x="-2" y="-1" width="17.5" height="22" filterUnits="userSpaceOnUse" color-interpolation-filters="sRGB">
<feFlood flood-opacity="0" result="BackgroundImageFix"/>
<feColorMatrix in="SourceAlpha" type="matrix" values="0 0 0 0 0 0 0 0 0 0 0 0 0 0 0 0 0 0 127 0" result="hardAlpha"/>
<feOffset dy="1"/>
<feGaussianBlur stdDeviation="1"/>
<feComposite in2="hardAlpha" operator="out"/>
<feColorMatrix type="matrix" values="0 0 0 0 0.0655035 0 0 0 0 0.242989 0 0 0 0 0.320833 0 0 0 0.9 0"/>
<feBlend mode="normal" in2="BackgroundImageFix" result="effect1_dropShadow_611_27738"/>
<feBlend mode="normal" in="SourceGraphic" in2="effect1_dropShadow_611_27738" result="shape"/>
</filter>
</defs>
</svg>
